<svg xmlns="http://www.w3.org/2000/svg" viewBox="0 0 64 64" role="img" aria-label="Voice Note to Action icon">
  <defs>
    <linearGradient id="bg" x1="0" x2="1" y1="0" y2="1">
      <stop offset="0" stop-color="#0b6c79" />
      <stop offset="1" stop-color="#385f7c" />
    </linearGradient>
  </defs>
  <rect width="64" height="64" rx="16" fill="url(#bg)" />
  <rect x="24" y="13" width="16" height="26" rx="8" fill="#ffffff" />
  <path d="M18 31a2 2 0 1 1 4 0c0 5.5 4.5 10 10 10s10-4.5 10-10a2 2 0 1 1 4 0c0 7.1-5.2 13-12 13.9V50h6a2 2 0 1 1 0 4H24a2 2 0 1 1 0-4h6v-5.1C23.2 44 18 38.1 18 31z" fill="#ffffff" />
</svg>
